<svg aria-hidden="true" focusable="false" role="img" xmlns="http://www.w3.org/2000/svg" viewBox="0 0 512 512"><path fill="currentColor" d="M104 288 136 184c8.8-28.6 35.2-48 65.1-48h109.8c29.9 0 56.3 19.4 65.1 48l32 104c20 4.5 35 22.4 35 43.7V392c0 17.7-14.3 32-32 32h-24c-17.7 0-32-14.3-32-32H160c0 17.7-14.3 32-32 32h-24c-17.7 0-32-14.3-32-32v-60.3c0-21.3 15-39.2 32-43.7zm69.3-104-22.2 72h209.8l-22.2-72c-3.7-12-14.7-20-27.3-20H200.6c-12.6 0-23.6 8-27.3 20zM144 352c13.3 0 24-10.7 24-24s-10.7-24-24-24-24 10.7-24 24 10.7 24 24 24zm224 0c13.3 0 24-10.7 24-24s-10.7-24-24-24-24 10.7-24 24 10.7 24 24 24z"/></svg>
